<?xml version="1.0" encoding="utf-8"?><!-- Uploaded to: SVG Repo, www.svgrepo.com, Generator: SVG Repo Mixer Tools -->
<svg width="800px" height="800px" viewBox="0 0 400 400" fill="none" xmlns="http://www.w3.org/2000/svg">
<path d="M113.897 247.861C112.001 139.239 95.2819 158.71 212.654 158.71C222.58 158.71 265.382 153.667 272.765 159.065C274.426 160.278 279.499 246.377 280.951 255.946" stroke="#000000" stroke-opacity="0.9" stroke-width="16" stroke-linecap="round" stroke-linejoin="round"/>
<path d="M155.977 166.868C155.259 175.694 156.335 184.422 156.881 193.153C157.262 199.304 152.676 232.598 155.977 237.57C160.477 244.343 202.175 241.57 209.569 241.071C217.399 240.548 233.532 245.222 235.371 237.57C238.121 226.13 238.121 182.414 238.121 158.709" stroke="#000000" stroke-opacity="0.9" stroke-width="16" stroke-linecap="round" stroke-linejoin="round"/>
<path d="M169.572 242.055C168.125 243.469 176.603 334.97 168.77 340.738C167.267 341.845 157.173 341.287 154.775 341.606" stroke="#000000" stroke-opacity="0.9" stroke-width="16" stroke-linecap="round" stroke-linejoin="round"/>
<path d="M218.398 247.842C221.932 261.835 214.627 332.597 218.401 340.406C219.809 343.32 226.622 342.711 230.018 342.711" stroke="#000000" stroke-opacity="0.9" stroke-width="16" stroke-linecap="round" stroke-linejoin="round"/>
<path d="M180.242 293.128C174.85 294.462 169.531 295.161 164.036 295.161" stroke="#000000" stroke-opacity="0.9" stroke-width="16" stroke-linecap="round" stroke-linejoin="round"/>
<path d="M224.231 291.669C220.475 289.761 217.122 292.363 213.812 292.687" stroke="#000000" stroke-opacity="0.9" stroke-width="16" stroke-linecap="round" stroke-linejoin="round"/>
<path d="M296 260.454C286.175 255.099 280.536 255.538 276.321 266.364" stroke="#000000" stroke-opacity="0.9" stroke-width="16" stroke-linecap="round" stroke-linejoin="round"/>
<path d="M105 257.103C110.434 250.184 119.679 248.938 124.679 256.277" stroke="#000000" stroke-opacity="0.9" stroke-width="16" stroke-linecap="round" stroke-linejoin="round"/>
<path d="M117.734 210.94C114.341 212.098 110.803 212.524 107.315 212.978" stroke="#000000" stroke-opacity="0.9" stroke-width="16" stroke-linecap="round" stroke-linejoin="round"/>
<path d="M282.109 201.171C278.331 202.222 275.425 202.472 271.69 204.222" stroke="#000000" stroke-opacity="0.9" stroke-width="16" stroke-linecap="round" stroke-linejoin="round"/>
<path d="M126.994 92.7273C122.75 92.7273 118.505 92.7273 114.261 92.7273" stroke="#000000" stroke-opacity="0.9" stroke-width="16" stroke-linecap="round" stroke-linejoin="round"/>
<path d="M268.218 92.1292C271.569 90.5411 275.13 91.1106 278.636 91.1106" stroke="#000000" stroke-opacity="0.9" stroke-width="16" stroke-linecap="round" stroke-linejoin="round"/>
<path d="M286.906 86.9395C280.674 104.342 287.768 82.5447 284.874 97.3576" stroke="#000000" stroke-opacity="0.9" stroke-width="16" stroke-linecap="round" stroke-linejoin="round"/>
<path d="M113.104 86.9395C113.104 90.0263 113.104 93.1132 113.104 96.2001" stroke="#000000" stroke-opacity="0.9" stroke-width="16" stroke-linecap="round" stroke-linejoin="round"/>
<path d="M188.346 84.6243C188.346 86.9381 188.346 89.2519 188.346 91.5697" stroke="#000000" stroke-opacity="0.9" stroke-width="16" stroke-linecap="round" stroke-linejoin="round"/>
<path d="M189.705 187.994C228.381 167.563 215.772 236.849 185.233 214.352C178.105 209.101 182.617 199.687 185.233 193.265" stroke="#000000" stroke-opacity="0.9" stroke-width="12" stroke-linecap="round" stroke-linejoin="round"/>
<path d="M137.146 71.7062C137.146 84.5561 127.962 115.098 136.241 128.978C137.097 130.408 227.652 131.702 237.478 131.702C240.475 131.702 255.542 134.443 257.364 132.612C260.513 129.445 257.803 111.344 258.268 107.16C264.92 46.9529 256.332 58.9802 186.858 58.9802C169.858 58.9802 152.887 59.3151 136.241 61.709" stroke="#000000" stroke-opacity="0.9" stroke-width="16" stroke-linecap="round" stroke-linejoin="round"/>
<path d="M211.008 84.6243C210.193 86.4114 209.716 91.0525 209.67 91.5697" stroke="#000000" stroke-opacity="0.9" stroke-width="16" stroke-linecap="round" stroke-linejoin="round"/>
</svg>