<?xml version="1.0" encoding="utf-8"?><!-- Uploaded to: SVG Repo, www.svgrepo.com, Generator: SVG Repo Mixer Tools -->
<svg width="800px" height="800px" viewBox="0 0 400 400" fill="none" xmlns="http://www.w3.org/2000/svg">
<path d="M274.182 54.6046C273.578 54.3126 272.897 54.246 272.237 54.1153C271.794 54.0288 271.329 54 270.857 54C270.057 54 269.24 54.0847 268.482 54.1225C265.701 54.2541 262.926 54.4424 260.145 54.601C256.23 54.7136 252.313 54.6325 248.397 54.7172C243.844 54.8154 239.309 55.0686 234.766 55.3506C232.199 55.4263 229.631 55.4172 227.061 55.4497C224.084 55.4911 221.107 55.6605 218.13 55.8236C215.85 55.9047 213.581 55.9173 211.299 55.865C209.134 55.8155 206.968 55.7065 204.803 55.6749C200.098 55.6073 195.397 55.583 190.691 55.5055C185.853 55.4281 181.026 55.4776 176.184 55.5974C171.612 55.7137 167.035 55.8326 162.459 55.8119C160.342 55.8011 158.224 55.6569 156.107 55.5866C154.936 55.5479 153.769 55.5623 152.602 55.5794C151.78 55.5902 150.959 55.601 150.142 55.5902C149.008 55.5758 147.992 55.8011 147.098 56.5119C146.225 57.2021 145.669 58.2229 145.58 59.3032" stroke="#000000" stroke-opacity="0.9" stroke-width="16" stroke-linecap="round" stroke-linejoin="round"/>
<path d="M277.556 148.131C277.89 147.423 278.138 146.728 278.157 145.994C278.178 145.398 278.083 144.707 277.957 144.098C277.796 143.286 275.909 66.3936 275.742 64.0228C275.629 62.4876 275.555 60.9556 275.253 59.4288C274.979 58.0506 274.578 56.6914 274.183 55.3258" stroke="#000000" stroke-opacity="0.9" stroke-width="16" stroke-linecap="round" stroke-linejoin="round"/>
<path d="M148.232 56.6516C147.401 56.8254 146.65 57.3752 146.163 58.1649C145.634 59.0245 145.509 59.9795 145.614 61.0015C145.743 62.2295 145.82 63.4556 145.88 64.6884C145.994 71.0399 146.87 131.121 147.025 133.881C147.104 136.033 147.163 138.187 147.257 140.342C147.369 142.954 147.462 145.567 147.953 148.131" stroke="#000000" stroke-opacity="0.9" stroke-width="16" stroke-linecap="round" stroke-linejoin="round"/>
<path d="M148.234 150.783C149.796 151.036 151.31 151.171 152.882 151.154C154.447 151.137 266.938 153.632 269.682 153.422C270.773 153.339 271.86 153.226 272.947 153.112C273.425 153.06 273.903 153.016 274.377 152.938C275.114 152.816 276.274 152.197 276.836 151.607" stroke="#000000" stroke-opacity="0.9" stroke-width="16" stroke-linecap="round" stroke-linejoin="round"/>
<path d="M202.32 98.0262C201.964 94.527 202.509 90.3005 202.657 87.1448" stroke="#000000" stroke-opacity="0.9" stroke-width="16" stroke-linecap="round" stroke-linejoin="round"/>
<path d="M225.787 98.0262C225.821 94.6313 225.851 91.2581 225.956 87.8701" stroke="#000000" stroke-opacity="0.9" stroke-width="16" stroke-linecap="round" stroke-linejoin="round"/>
<path d="M214.789 129.026C214.822 125.631 214.853 122.258 214.958 118.87" stroke="#000000" stroke-opacity="0.9" stroke-width="16" stroke-linecap="round" stroke-linejoin="round"/>
<path d="M318.449 133.488C318.619 131.409 301.372 189.823 300.2 189.215C299.817 189.016 269.561 175.227 250.997 175.787C226.624 176.523 193.135 177.66 167.741 178.531C147.102 179.239 119.768 189.215 119.062 189.215" stroke="#000000" stroke-opacity="0.9" stroke-width="16" stroke-linecap="round" stroke-linejoin="round"/>
<path fill-rule="evenodd" clip-rule="evenodd" d="M115.082 188.988C115.736 191.587 80.8937 136.812 81.1666 139.275C81.2705 140.226 114.955 188.614 115.082 188.988Z" stroke="#000000" stroke-opacity="0.9" stroke-width="16" stroke-linecap="round" stroke-linejoin="round"/>
<path d="M177.401 267.452C177.288 269.854 177.103 278.005 176.962 280.401C176.821 282.786 176.757 285.176 176.662 287.565C176.463 292.518 175.838 328.674 175.637 331.335C175.449 333.782 175.25 336.233 175.175 338.684C175.127 340.12 175.145 341.566 175.319 342.995C175.379 343.501 163.565 345.326 162.817 345.674" stroke="#000000" stroke-opacity="0.9" stroke-width="16" stroke-linecap="round" stroke-linejoin="round"/>
<path d="M247.665 346.847C247.382 346.821 240.897 346.799 238.446 347C237.94 347.04 240.729 305.826 240.661 296.185C240.593 286.569 240.552 278.395 240.699 268.778" stroke="#000000" stroke-opacity="0.9" stroke-width="16" stroke-linecap="round" stroke-linejoin="round"/>
<path d="M317.228 112.104C316.167 111.941 315.072 112.196 314.201 112.814C313.239 113.491 312.798 114.414 312.53 115.52C312.238 116.726 311.942 117.93 311.657 119.138C311.542 119.616 311.442 120.099 311.34 120.581C310.926 122.579 311.384 124.792 313.085 126.109C314.5 127.201 316.181 127.807 317.793 128.545C318.866 129.04 319.939 129.535 321.012 130.026C322.21 130.577 323.444 131.062 324.697 131.494C325.781 131.867 326.879 132.2 327.977 132.5C328.456 132.631 328.932 132.757 329.41 132.879C330.419 133.131 331.536 133.501 332.579 133.353C334.056 133.146 335.292 132.642 336.409 131.656C337.52 130.676 338.426 129.564 339.276 128.361C339.928 127.435 340.3 126.467 340.174 125.315C340.057 124.224 339.498 123.209 338.636 122.516" stroke="#000000" stroke-opacity="0.9" stroke-width="16" stroke-linecap="round" stroke-linejoin="round"/>
<path d="M59.8524 129.382C59.0583 130.103 58.567 131.115 58.4989 132.18C58.4205 133.354 58.86 134.277 59.5509 135.182C60.3042 136.167 61.0543 137.154 61.814 138.136C62.1128 138.526 62.4251 138.908 62.7367 139.29C64.029 140.869 66.0373 141.906 68.1317 141.413C69.8707 141.002 71.3998 140.077 72.9876 139.288C74.0478 138.766 75.1079 138.244 76.1654 137.719C77.3472 137.135 78.5011 136.482 79.6254 135.779C80.598 135.172 81.5475 134.529 82.4723 133.864C82.8748 133.575 83.2729 133.283 83.6683 132.99C84.4999 132.364 85.4897 131.729 86.0321 130.825C86.8003 129.548 87.1861 128.27 87.1227 126.782C87.0601 125.302 86.766 123.898 86.3655 122.481C86.057 121.391 85.5383 120.493 84.5633 119.866C83.6417 119.271 82.501 119.066 81.4201 119.3" stroke="#000000" stroke-opacity="0.9" stroke-width="16" stroke-linecap="round" stroke-linejoin="round"/>
<path d="M172.861 183.088C172.212 184.012 172.149 184.93 172.216 186.014C172.23 186.227 172.243 186.44 172.255 186.652C172.654 195.868 172.265 248.366 172.166 251.173C172.068 253.904 172.054 256.71 172.279 259.439C172.37 260.562 172.65 261.799 173.401 262.667C174.426 263.85 175.724 264.389 177.271 264.449C178.3 264.491 179.362 264.29 180.383 264.148C181.565 263.985 182.737 263.765 183.899 263.482C185.175 263.169 236.022 264.229 237.991 264.346C239.536 264.436 241.121 264.412 242.642 264.715L242.937 264.779C243.892 264.867 244.386 264.679 245.267 264.385C246.347 264.028 247.249 262.883 247.628 261.827C248.055 260.642 247.858 259.338 247.754 258.094C247.605 253.698 251.455 183.138 251.485 182.34C251.509 181.581 251.54 180.823 251.573 180.068C251.625 178.694 251.829 177.252 251.204 175.973" stroke="#000000" stroke-opacity="0.9" stroke-width="16" stroke-linecap="round" stroke-linejoin="round"/>
<path d="M295.184 176.709C297.516 179.838 304.061 193.974 303.839 194.534" stroke="#000000" stroke-opacity="0.9" stroke-width="16" stroke-linecap="round" stroke-linejoin="round"/>
<path d="M112.745 197.148C112.34 197.148 120.476 176.435 120.391 175.973" stroke="#000000" stroke-opacity="0.9" stroke-width="16" stroke-linecap="round" stroke-linejoin="round"/>
<path d="M182.704 303.283C180.95 303.277 179.193 303.249 177.438 303.249C176.868 303.249 176.298 303.253 175.728 303.26C173.12 303.303 170.675 303.866 168.12 304.575" stroke="#000000" stroke-opacity="0.9" stroke-width="16" stroke-linecap="round" stroke-linejoin="round"/>
<path d="M248.994 303.283C247.24 303.277 245.483 303.249 243.728 303.249C243.158 303.249 242.588 303.253 242.018 303.26C239.41 303.303 236.965 303.866 234.41 304.575" stroke="#000000" stroke-opacity="0.9" stroke-width="16" stroke-linecap="round" stroke-linejoin="round"/>
<path d="M276.832 96.4253L290.381 97.7511L299.37 96.4253" stroke="#000000" stroke-opacity="0.9" stroke-width="16" stroke-linecap="round" stroke-linejoin="round"/>
<path d="M138.953 95.7625H120.392" stroke="#000000" stroke-opacity="0.9" stroke-width="16" stroke-linecap="round" stroke-linejoin="round"/>
<path d="M299.703 87.4895V103.782" stroke="#000000" stroke-opacity="0.9" stroke-width="16" stroke-linecap="round" stroke-linejoin="round"/>
<path d="M119.572 87.4895V103.782" stroke="#000000" stroke-opacity="0.9" stroke-width="16" stroke-linecap="round" stroke-linejoin="round"/>
</svg>