<svg stroke-miterlimit="10" viewBox="0 0 512 512" xmlns="http://www.w3.org/2000/svg" clip-rule="evenodd" stroke-linecap="round" stroke-linejoin="round"><path d="M0 0h512v512H0V0z" fill="#1e1e1e"/><path d="M0 0v129l47.875 383h32.25l43.813-350.5-15.876-131L64 383 16.125 0H0zm112.375 0L128 129l47.875 383h32.25l43.813-350.5-15.876-131L192 383 144.125 0h-31.75zm128 0L256 129l47.875 383h32.25L384 129l.25-2 49.656 385h32.156L512 132.938V0h-16.125L449.5 382.719 400.125 0h-32.25L320 383 272.125 0h-31.75z" fill="#3c3c3c"/><path d="M62.375 0l-62 62 193 193L32.187 416.188.375 448 64 511.625l31.813-31.813L257 318.625l193 193 62-62v-3.25l-25.031-25.031c-5.043 9.001-11.104 17.754-18.25 26.156-3.197 3.758-6.509 7.477-10.125 11.094L448 469.219 426.781 448 266.625 287.844 85.219 469.219c-11.716 11.716-30.722 11.715-42.438 0-11.715-11.716-11.715-30.722 0-42.438L213.562 256 42.782 85.219c-11.716-11.716-11.716-30.722 0-42.438C48.638 36.923 56.321 34 64 34c7.678 0 15.36 2.923 21.219 8.781L256 213.562l170.781-170.78C432.639 36.922 440.322 34 448 34c7.678 0 15.361 2.923 21.219 8.781 11.716 11.716 11.715 30.722 0 42.438L355.406 199.03c1.159.04 2.309-.068 3.469 0 5.298.312 10.556 1.029 15.781 1.938L481.812 93.813 512 63.624v-3.25L451.625 0h-3.25l-30.187 30.188L257 191.375 65.625 0h-3.25zm312.281 200.969l-27.968 27.969c3.465-.132 6.95-.174 10.437.031 29.266 1.721 58.052 15.396 80.281 37.625 22.229 22.229 35.904 51.015 37.625 80.281 1.049 17.83-2.432 35.405-10.312 52.219l22.25 22.25c13.456-24.019 19.55-49.864 18-76.219-2.168-36.845-19.104-72.448-46.375-99.719-23.35-23.349-52.822-39.023-83.938-44.437zm90.063 198.125L320.625 255l26.063-26.062c-.509.019-1.024-.027-1.532 0a105.686 105.686 0 00-23.531 3.906l33.781-33.813c-3.915-.133-7.832-.262-11.718-.062-30.89 1.591-60.747 13.696-87.25 36.25L64 42.781 42.781 64l192 192L256 277.219l10.625 10.625 21.219-21.219-10.125-10.125c13.886-11.429 28.638-19.282 43.843-23.625l-33.718 33.75L447.5 426.281c7.198-8.746 12.848-17.862 17.219-27.187z" fill="#1a8cd1"/></svg>