<svg xmlns="http://www.w3.org/2000/svg" xmlns:vectornator="http://vectornator.io" xml:space="preserve" stroke-miterlimit="10" style="fill-rule:nonzero;clip-rule:evenodd;stroke-linecap:round;stroke-linejoin:round" viewBox="150.537 70.765 210.927 370.485"><clipPath id="a"><path d="M150.537 70.765h210.927V441.25H150.537z"/></clipPath><g vectornator:layerName="Layer" clip-path="url(#a)"><path vectornator:layerName="曲线 16" fill="#007cf1" d="M256 98.438c-43.691 0-79.094 35.403-79.094 79.093 0 20.289 7.694 38.748 20.25 52.75h-20.25c-35.159 0-35.159 52.75 0 52.75h44.813c-14.705 97.829-44.813 158.219-44.813 158.219h158.188s-30.108-60.39-44.813-158.219h44.813c35.159 0 35.159-52.75 0-52.75h-20.25c12.556-14.002 20.25-32.461 20.25-52.75 0-43.69-35.403-79.093-79.094-79.093"/><path vectornator:layerName="曲线 18" fill="#ccc" d="M256 70.765c-68.249 0-93.881 23.283-90.998 92.883.217 5.246 4.859 9.46 11.33 8.163 6.471-1.296 2.568-19.336 26.482-32.88 9.764-5.531 31.045-8.208 53.186-8.935 22.141.727 43.422 3.404 53.186 8.935 23.914 13.544 20.011 31.584 26.482 32.88s11.113-2.917 11.33-8.163c2.883-69.6-22.749-92.883-90.998-92.883"/><path vectornator:layerName="曲线 17" fill="#999" d="M269.938 71.156c-.094 1.78.557 3.576 2.093 4.719 4.753 3.599 10.474 4.851 16.344 5.125 1.215.057 2.782.336 3.823.778 1.042.441 3.202 2.292 3.771 2.972.648.776 1.444 1.39 2.25 2 1.51 1.144 3.559 1.855 5.375 2.344 3.047.82 12.175 2.369 13.656 2.812 1.924.576 8.278 2.947 9.594 3.563 2.162 1.012 4.346 1.38 6.594 1.812-12.133-16.648-32.758-24.422-63.5-26.125m-43.969 1.656c-20.07 3.023-34.718 9.708-44.625 21.157 1.536.241 3.158-.105 4.437-1.188.855-.698 1.767-1.366 2.875-1.594 1.392-.285 2.76.241 4.063.657 1.181.377 2.353.757 3.562 1.031 4.562 1.036 9.627.64 13.688-1.812 2.406-1.454 4.243-3.613 5.781-5.938.841-1.272 1.54-2.662 2.469-3.875 1.351-1.764 3.094-3.154 4.656-4.719 1.156-1.157 2.17-2.41 3.094-3.719M243.75 83.75a3.84 3.84 0 0 0-2.594 1.344c-3.154 3.638-6.305 7.256-9.812 10.562-3.384 3.19-7.078 6.015-10.688 8.938-3.139 2.542-6.198 5.152-9.344 7.687-1.453 1.172-3.106 2.308-4.281 3.781-.735.923-1.28 2.001-2 2.938-.913 1.189-2.012 2.069-3.343 2.75-.988.505-2.193 1.075-3.313 1.188-1.14.114-2.354-.298-3.437-.563-1.295-.317-2.549-.612-3.876-.781-3.855-.491-7.99-.501-11.812.25-4.681.919-9.099 3.343-12.406 6.781-.135.14-.213.325-.344.469-.923 5.851-1.381 12.312-1.562 19.218.352-.233.729-.426 1.031-.75 1.527-1.57 3.056-3.096 4.843-4.374 1.95-1.395 4.129-2.472 6.188-3.688 2.45-1.447 4.882-3.196 7.594-4.125 1.352-.463 2.885-.293 4.281-.281 2.168.018 4.313-.091 6.437-.563 2.529-.561 5.022-1.441 7.313-2.656 1.876-.995 3.695-2.14 5.656-2.969 2.516-1.062 5.357-1.213 7.75-2.562 2.333-1.316 4.361-3.217 6.313-5.032 5.639-5.241 9.881-11.421 14.187-17.75 3.209-4.716 6.737-9.197 10.407-13.562 1.357-1.59 1.152-3.987-.438-5.344a3.77 3.77 0 0 0-2.75-.906m56.531 16.531c-.657.021-1.315.05-1.969.125-3.057.353-5.845 1.472-8.75 2.406-2.552.822-5.235 1.342-7.906 1.594-1.883.178-3.799.136-5.687.156-2.564.029-5.098.012-7.657-.187-2.149-.167-4.288-.482-6.437-.656-3.031-.298-5.733 1.906-6.031 4.937s1.937 5.733 4.968 6.031c1.432.171 2.812.436 4.188.875 2.952.942 5.712 2.441 8.688 3.313a23.4 23.4 0 0 0 9.906.719c3.454-.499 6.577-2.016 9.75-3.375 2.187-.938 4.454-1.685 6.625-2.657 1.739-.778 2.932-1.312 5.39-1.699s3.676.496 5.235 1.668c1.22.917 2.298 2.256 3.344 3.344 3.218 3.349 6.716 7.098 11.374 8.344 1.289.344 2.798.594 4.126.312.716-.152 1.464-.28 2.093-.656.916-.547 1.844-1.198 2.469-2.063.69-.954 1.102-2.097 1.344-3.25.184-.878.071-1.805-.094-2.687-.126-.677-.451-1.317-.75-1.937-1.03-2.141-3.152-3.689-4.875-5.251-.858-.778-1.63-1.607-2.5-2.375-.923-.814-1.579-1.366-2.625-2.031-1.331-.846-2.663-1.262-4.156-1.719-.899-.274-1.815-.47-2.719-.718-2.09-.574-4.143-1.298-6.281-1.688-1.695-.309-3.443-.464-5.156-.625-1.958-.184-3.936-.312-5.907-.25m45.563 31.594c-.031.03-.063.065-.094.094-.871.804-1.899 1.519-2.562 2.531-1.504 2.291-1.489 5.296-1.907 7.906-.126.788-.236 1.516-.562 2.25-.596 1.342-1.635 2.57-1.563 4.125.057 1.22.674 2.62 1.188 3.688 1.58 3.286 4.051 5.107 6.718 7 .255-10.202-.115-19.396-1.218-27.594"/></g></svg>