<svg xmlns="http://www.w3.org/2000/svg" xmlns:vectornator="http://vectornator.io" xml:space="preserve" stroke-miterlimit="10" style="fill-rule:nonzero;clip-rule:evenodd;stroke-linecap:round;stroke-linejoin:round" viewBox="150.537 71.406 210.927 369.188"><clipPath id="a"><path d="M150.537 71.406h210.927v369.188H150.537z"/></clipPath><g vectornator:layerName="Layer" clip-path="url(#a)"><path vectornator:layerName="曲线 10" fill="#428800" d="M256 71.406c-43.691 0-79.094 35.435-79.094 79.125 0 20.285 7.698 38.717 20.25 52.719h-20.25c-35.159 0-35.159 52.75 0 52.75h44.813c-9.053 60.224-23.72 105.372-33.844 131.844h-10.969c-35.159 0-35.159 52.75 0 52.75h158.188c35.159 0 35.159-52.75 0-52.75h-10.969c-10.124-26.472-24.791-71.62-33.844-131.844h44.813c35.159 0 35.159-52.75 0-52.75h-20.25c12.552-14.002 20.25-32.434 20.25-52.719 0-43.69-35.403-79.125-79.094-79.125"/><path vectornator:layerName="曲线 11" fill="#d2d2d2" d="M220.969 171.25s-3.219 5.949-3.219 5.969c-.341 2.703-.985 5.339-1.531 7.906-.394 1.851-.786 3.687-1.188 5.531-.585 2.685-1.2 5.374-1.781 8.063-.449 2.079-.899 4.144-1.312 6.25-.171.869-.448 1.928-.469 2.875-.014.642.326 1.541.469 2.094.403 1.569.86 3.104 1.312 4.624 1.642 5.527 3.396 10.926 5.187 16.282 1.327 3.964 2.619 8.127 4.188 11.781-1.44-4.241-2.53-9.02-3.656-13.563-1.184-4.773-2.351-9.587-3.407-14.468-.444-2.058-1.076-4.387-1.218-6.625-.045-.711.403-1.852.562-2.438.623-2.293 1.301-4.535 1.969-6.781 1.348-4.533 6.812-21.219 6.813-21.219zm13.75 0c-3.314 5.703-5.916 11.719-7.313 18.188-.243 1.127-.875 5.593-.875 5.593s1.147 5.454 2.094 8.688c1.629 5.562 3.966 10.802 6.75 15.875-1.588-5.18-2.675-10.446-2.875-15.875-.126-3.416-.855-6.129-1-9.531-.116-2.737.9-6.099.969-8.844.12-4.811.932-9.475 2.25-14.094m42.562 0c1.318 4.619 2.13 9.283 2.25 14.094.069 2.745 1.085 6.107.969 8.844-.145 3.402-.874 6.115-1 9.531-.2 5.429-1.287 10.695-2.875 15.875 2.784-5.073 5.121-10.313 6.75-15.875.947-3.234 2.094-8.688 2.094-8.688s-.632-4.466-.875-5.593c-1.397-6.469-3.999-12.485-7.313-18.188m13.75 0-2.719 6.281c.001 0 5.465 16.686 6.813 21.219.668 2.246 1.346 4.488 1.969 6.781.159.586.607 1.727.562 2.438-.142 2.238-.774 4.567-1.218 6.625-1.056 4.881-2.223 9.695-3.407 14.468-1.126 4.543-2.216 9.322-3.656 13.563 1.569-3.654 2.861-7.817 4.187-11.781 1.792-5.356 3.546-10.755 5.188-16.282.452-1.52.909-3.055 1.312-4.624.143-.553.483-1.452.469-2.094-.021-.947-.298-2.006-.469-2.875-.413-2.106-.863-4.171-1.312-6.25-.581-2.689-1.196-5.378-1.781-8.063-.402-1.844-.794-3.68-1.188-5.531-.546-2.567-1.19-5.203-1.531-7.906 0-.02-3.219-5.969-3.219-5.969m-44.812.875c-3.389 6.677-5.887 13.724-6.969 21.156-.376 2.585-.742 5.321-.531 7.938.155 1.924.872 3.708 1.531 5.5a75.5 75.5 0 0 0 4.812 10.5c-.648-3.285-1.137-6.585-1.25-9.938-.088-2.629.312-5.255.157-7.875-.18-3.03-.649-6.014-.657-9.062-.015-6.234 1.053-12.282 2.907-18.219m19.562 0c1.856 6.322 2.92 12.773 2.907 19.375-.007 3.204-.467 6.313-.657 9.5-.142 2.377.244 4.771.157 7.156-.113 3.069-.602 6.068-1.25 9.063a84 84 0 0 0 4.812-11.563c.649-1.966 1.365-3.95 1.531-6.031.25-3.112-.262-6.421-.843-9.469-1.214-6.364-3.588-12.346-6.657-18.031m-12.937 1.125c-.945 6.604-1.247 13.271-1.282 19.938-.012 2.402-.142 4.853.063 7.25.196 2.281.91 4.513 1.375 6.75.58 2.792.952 5.649 1.375 8.468.33-3.679.634-7.378.906-11.062.137-1.851.436-3.672.313-5.532-.191-2.891-.838-5.789-1.25-8.656-.818-5.691-1.425-11.403-1.5-17.156m6.312 0c-.075 6.033-.681 12.026-1.5 18-.409 2.987-1.05 5.99-1.25 9-.115 1.734.143 3.433.282 5.156.274 3.415.608 6.84.937 10.25.424-3.039.798-6.11 1.375-9.125.463-2.418 1.166-4.855 1.375-7.312.245-2.878.1-5.834.063-8.719-.075-5.776-.423-11.535-1.282-17.25"/></g></svg>