<svg xmlns="http://www.w3.org/2000/svg" xmlns:vectornator="http://vectornator.io" xml:space="preserve" stroke-miterlimit="10" style="fill-rule:nonzero;clip-rule:evenodd;stroke-linecap:round;stroke-linejoin:round" viewBox="97.781 0 316.438 512"><clipPath id="a"><path d="M97.781 0h316.438v512H97.781z"/></clipPath><g vectornator:layerName="Layer" clip-path="url(#a)"><path vectornator:layerName="曲线 1" fill="#ec0014" d="m174.094 0 23.218 89.906c-12.649 14.023-20.406 32.534-20.406 52.906 0 20.289 7.694 38.748 20.25 52.75h-20.25c-35.159 0-35.159 52.751 0 52.75h44.813c-9.053 60.224-23.72 105.372-33.844 131.844h-10.969c-23.117 0-30.969 22.758-23.687 38.375C125.98 431.25 97.781 457.458 97.781 512H414.22c0-54.542-28.199-80.75-55.438-93.469 7.282-15.617-.57-38.375-23.687-38.375h-10.969c-10.124-26.472-24.791-71.62-33.844-131.844h44.813c35.159 0 35.159-52.75 0-52.75h-20.25c12.556-14.002 20.25-32.461 20.25-52.75 0-20.372-7.757-38.883-20.406-52.906L337.906 0l-60.844 66.625c-6.713-1.852-13.759-2.906-21.062-2.906s-14.349 1.054-21.062 2.906z"/></g></svg>