<svg xmlns="http://www.w3.org/2000/svg" xmlns:vectornator="http://vectornator.io" xml:space="preserve" stroke-miterlimit="10" style="fill-rule:nonzero;clip-rule:evenodd;stroke-linecap:round;stroke-linejoin:round" viewBox="97.781 31.844 316.438 448.312"><clipPath id="a"><path d="M97.781 31.844h316.438v448.312H97.781z"/></clipPath><g vectornator:layerName="Layer" clip-path="url(#a)"><path vectornator:layerName="曲线 2" fill="#ff0" d="M256 31.844c-43.691 0-79.094 35.434-79.094 79.125 0 20.3 7.711 38.744 20.282 52.75h-20.282c-35.159 0-35.159 52.719 0 52.719h44.813c-9.051 60.212-23.72 105.368-33.844 131.843h-10.969c-23.111 0-30.959 22.758-23.687 38.375-27.24 12.719-55.438 38.956-55.438 93.5H414.22c0-54.544-28.198-80.781-55.438-93.5 7.272-15.617-.576-38.375-23.687-38.375h-10.969c-10.124-26.475-24.793-71.631-33.844-131.843h44.813c35.159 0 35.159-52.719 0-52.719h-20.282c12.571-14.006 20.282-32.45 20.282-52.75 0-43.69-35.403-79.125-79.094-79.125"/><path vectornator:layerName="曲线 4" fill="#e3f501" d="M208.969 87.375c-5.448 13.694-6.757 28.819-5.157 43.406.963 8.768 2.982 17.492 7.032 25.375-1.456-10.153.039-20.56 2.906-30.344 2.91-9.931 7.29-19.524 14.125-27.374m56.25 0c6.835 7.85 11.215 17.443 14.125 27.374 2.867 9.784 4.362 20.191 2.906 30.344 4.05-7.883 6.069-16.607 7.032-25.375 1.6-14.587.291-29.712-5.157-43.406"/><path vectornator:layerName="曲线 3" fill="#fff" d="M205.562 77.188c-2.385.055-4.701.27-6.937.624-.015 13.156 14.758 25.217 34.406 27.407 4.992.556 9.797.37 14.281-.344-.023-13.136-14.814-25.157-34.437-27.344a55 55 0 0 0-7.313-.344m100.876 0a55 55 0 0 0-7.313.343c-19.623 2.187-34.414 14.208-34.437 27.344 4.484.714 9.289.9 14.281.344 19.648-2.19 34.421-14.251 34.406-27.406a52 52 0 0 0-6.937-.626"/></g></svg>