<svg id="ghost0" height="5px" stroke-miterlimit="10" style="fill-rule:nonzero;clip-rule:evenodd;stroke-linecap:round;stroke-linejoin:round;" version="1.1" viewBox="-2.22045e-16 0 3 3" width="5px" xml:space="preserve" xmlns="http://www.w3.org/2000/svg" xmlns:xlink="http://www.w3.org/1999/xlink">
<path d="M1.5 0C0.671573 0-2.22045e-16 0.671573-2.22045e-16 1.5L-2.22045e-16 2.5C-2.22045e-16 2.77614 0.223858 3 0.5 3C0.776142 3 1 2.77614 1 2.5C1 2.77614 1.22386 3 1.5 3C1.77614 3 2 2.77614 2 2.5C2 2.77614 2.22386 3 2.5 3C2.77614 3 3 2.77614 3 2.5L3 1.5C3 0.671573 2.32843 0 1.5 0Z" fill-rule="nonzero" opacity="1" stroke="none"/>
</svg>