<svg id="ghost1" height="5px" stroke-miterlimit="10" style="fill-rule:nonzero;clip-rule:evenodd;stroke-linecap:round;stroke-linejoin:round;" version="1.1" viewBox="-2.22045e-16 0 3 3" width="5px" xml:space="preserve" xmlns="http://www.w3.org/2000/svg" xmlns:xlink="http://www.w3.org/1999/xlink">
<path d="M1.5 0C0.671573 0 0 0.671573 0 1.5L0 2.5L0 3C0.276142 3 0.5 2.77614 0.5 2.5C0.5 2.77614 0.723858 3 1 3C1.27614 3 1.5 2.77614 1.5 2.5C1.5 2.77614 1.72386 3 2 3C2.27614 3 2.5 2.77614 2.5 2.5C2.5 2.77614 2.72386 3 3 3L3 2.5L3 1.5C3 0.671573 2.32843 0 1.5 0Z" fill-rule="nonzero" opacity="1" stroke="none"/>
</svg>