<svg stroke-miterlimit="10" style="fill-rule:nonzero;clip-rule:evenodd;stroke-linecap:round;stroke-linejoin:round;" version="1.1" viewBox="4.5 4.5 136 151" xml:space="preserve" xmlns="http://www.w3.org/2000/svg"  xmlns:xlink="http://www.w3.org/1999/xlink">
<path d="M5 80L27.5 80C28.8807 80 30 81.1193 30 82.5L30 97.5C30 98.8807 28.8807 100 27.5 100L7.5 100C6.11929 100 5 101.119 5 102.5L5 122.5C5 123.881 6.11929 125 7.5 125L12.5 125C13.8807 125 15 126.119 15 127.5L15 127.5C15 128.881 13.8807 130 12.5 130L7.5 130C6.11929 130 5 131.119 5 132.5L5 152.5C5 153.881 6.11929 155 7.5 155L137.5 155C138.881 155 140 153.881 140 152.5L140 132.5C140 131.119 138.881 130 137.5 130L132.5 130C131.119 130 130 128.881 130 127.5L130 127.5C130 126.119 131.119 125 132.5 125L137.5 125C138.881 125 140 123.881 140 122.5L140 102.5C140 101.119 138.881 100 137.5 100L117.5 100C116.119 100 115 98.8807 115 97.5L115 82.5C115 81.1193 116.119 80 117.5 80L140 80M5 70L27.5 70C28.8807 70 30 68.8807 30 67.5L30 52.5C30 51.1193 28.8807 50 27.5 50L7.5 50C6.11929 50 5 48.8807 5 47.5L5 7.5C5 6.11929 6.11929 5 7.5 5L67.5 5C68.8807 5 70 6.11929 70 7.5L70 22.5C70 23.8807 71.1193 25 72.5 25L72.5 25C73.8807 25 75 23.8807 75 22.5L75 7.5C75 6.11929 76.1193 5 77.5 5L137.5 5C138.881 5 140 6.11929 140 7.5L140 47.5C140 48.8807 138.881 50 137.5 50L117.5 50C116.119 50 115 51.1193 115 52.5L115 67.5C115 68.8807 116.119 70 117.5 70L140 70M15 17.5C15 16.1193 16.1193 15 17.5 15L27.5 15C28.8807 15 30 16.1193 30 17.5L30 22.5C30 23.8807 28.8807 25 27.5 25L17.5 25C16.1193 25 15 23.8807 15 22.5L15 17.5ZM17.5 35C16.1193 35 15 36.1193 15 37.5L15 37.5C15 38.8807 16.1193 40 17.5 40L27.5 40C28.8807 40 30 38.8807 30 37.5L30 37.5C30 36.1193 28.8807 35 27.5 35L17.5 35ZM42.5 15C41.1193 15 40 16.1193 40 17.5L40 22.5C40 23.8807 41.1193 25 42.5 25L57.5 25C58.8807 25 60 23.8807 60 22.5L60 17.5C60 16.1193 58.8807 15 57.5 15L42.5 15ZM42.5 35C41.1193 35 40 36.1193 40 37.5L40 67.5C40 68.8807 41.1193 70 42.5 70L42.5 70C43.8807 70 45 68.8807 45 67.5L45 57.5C45 56.1193 46.1193 55 47.5 55L57.5 55C58.8807 55 60 53.8807 60 52.5L60 52.5C60 51.1193 58.8807 50 57.5 50L47.5 50C46.1193 50 45 48.8807 45 47.5L45 37.5C45 36.1193 43.8807 35 42.5 35L42.5 35ZM57.5 35C56.1193 35 55 36.1193 55 37.5L55 37.5C55 38.8807 56.1193 40 57.5 40L67.5 40C68.8807 40 70 41.1193 70 42.5L70 52.5C70 53.8807 71.1193 55 72.5 55L72.5 55C73.8807 55 75 53.8807 75 52.5L75 42.5C75 41.1193 76.1193 40 77.5 40L87.5 40C88.8807 40 90 38.8807 90 37.5L90 37.5C90 36.1193 88.8807 35 87.5 35L57.5 35ZM87.5 15C86.1193 15 85 16.1193 85 17.5L85 22.5C85 23.8807 86.1193 25 87.5 25L102.5 25C103.881 25 105 23.8807 105 22.5L105 17.5C105 16.1193 103.881 15 102.5 15L87.5 15ZM117.5 15C116.119 15 115 16.1193 115 17.5L115 22.5C115 23.8807 116.119 25 117.5 25L127.5 25C128.881 25 130 23.8807 130 22.5L130 17.5C130 16.1193 128.881 15 127.5 15L117.5 15ZM117.5 35C116.119 35 115 36.1193 115 37.5L115 37.5C115 38.8807 116.119 40 117.5 40L127.5 40C128.881 40 130 38.8807 130 37.5L130 37.5C130 36.1193 128.881 35 127.5 35L117.5 35ZM102.5 35C101.119 35 100 36.1193 100 37.5L100 47.5C100 48.8807 98.8807 50 97.5 50L87.5 50C86.1193 50 85 51.1193 85 52.5L85 52.5C85 53.8807 86.1193 55 87.5 55L97.5 55C98.8807 55 100 56.1193 100 57.5L100 67.5C100 68.8807 101.119 70 102.5 70L102.5 70C103.881 70 105 68.8807 105 67.5L105 37.5C105 36.1193 103.881 35 102.5 35L102.5 35ZM80 65L87.5 65C88.8807 65 90 66.1193 90 67.5L90 82.5C90 83.8807 88.8807 85 87.5 85L57.5 85C56.1193 85 55 83.8807 55 82.5L55 67.5C55 66.1193 56.1193 65 57.5 65L65 65M42.5 80C41.1193 80 40 81.1193 40 82.5L40 97.5C40 98.8807 41.1193 100 42.5 100L42.5 100C43.8807 100 45 98.8807 45 97.5L45 82.5C45 81.1193 43.8807 80 42.5 80L42.5 80ZM15 112.5C15 111.119 16.1193 110 17.5 110L27.5 110C28.8807 110 30 111.119 30 112.5L30 127.5C30 128.881 28.8807 130 27.5 130L27.5 130C26.1193 130 25 128.881 25 127.5L25 117.5C25 116.119 23.8807 115 22.5 115L17.5 115C16.1193 115 15 113.881 15 112.5L15 112.5ZM17.5 140C16.1193 140 15 141.119 15 142.5L15 142.5C15 143.881 16.1193 145 17.5 145L57.5 145C58.8807 145 60 143.881 60 142.5L60 142.5C60 141.119 58.8807 140 57.5 140L47.5 140C46.1193 140 45 138.881 45 137.5L45 127.5C45 126.119 43.8807 125 42.5 125L42.5 125C41.1193 125 40 126.119 40 127.5L40 137.5C40 138.881 38.8807 140 37.5 140L17.5 140ZM42.5 110C41.1193 110 40 111.119 40 112.5L40 112.5C40 113.881 41.1193 115 42.5 115L57.5 115C58.8807 115 60 113.881 60 112.5L60 112.5C60 111.119 58.8807 110 57.5 110L42.5 110ZM57.5 125C56.1193 125 55 126.119 55 127.5L55 127.5C55 128.881 56.1193 130 57.5 130L67.5 130C68.8807 130 70 131.119 70 132.5L70 142.5C70 143.881 71.1193 145 72.5 145L72.5 145C73.8807 145 75 143.881 75 142.5L75 132.5C75 131.119 76.1193 130 77.5 130L87.5 130C88.8807 130 90 128.881 90 127.5L90 127.5C90 126.119 88.8807 125 87.5 125L57.5 125ZM57.5 95C56.1193 95 55 96.1193 55 97.5L55 97.5C55 98.8807 56.1193 100 57.5 100L67.5 100C68.8807 100 70 101.119 70 102.5L70 112.5C70 113.881 71.1193 115 72.5 115L72.5 115C73.8807 115 75 113.881 75 112.5L75 102.5C75 101.119 76.1193 100 77.5 100L87.5 100C88.8807 100 90 98.8807 90 97.5L90 97.5C90 96.1193 88.8807 95 87.5 95L57.5 95ZM87.5 110C86.1193 110 85 111.119 85 112.5L85 112.5C85 113.881 86.1193 115 87.5 115L102.5 115C103.881 115 105 113.881 105 112.5L105 112.5C105 111.119 103.881 110 102.5 110L87.5 110ZM102.5 80C101.119 80 100 81.1193 100 82.5L100 97.5C100 98.8807 101.119 100 102.5 100L102.5 100C103.881 100 105 98.8807 105 97.5L105 82.5C105 81.1193 103.881 80 102.5 80L102.5 80ZM102.5 125C101.119 125 100 126.119 100 127.5L100 137.5C100 138.881 98.8807 140 97.5 140L87.5 140C86.1193 140 85 141.119 85 142.5L85 142.5C85 143.881 86.1193 145 87.5 145L127.5 145C128.881 145 130 143.881 130 142.5L130 142.5C130 141.119 128.881 140 127.5 140L107.5 140C106.119 140 105 138.881 105 137.5L105 127.5C105 126.119 103.881 125 102.5 125L102.5 125ZM117.5 110C116.119 110 115 111.119 115 112.5L115 127.5C115 128.881 116.119 130 117.5 130L117.5 130C118.881 130 120 128.881 120 127.5L120 117.5C120 116.119 121.119 115 122.5 115L127.5 115C128.881 115 130 113.881 130 112.5L130 112.5C130 111.119 128.881 110 127.5 110L117.5 110Z" fill="none" opacity="1" stroke="#1991E8" stroke-linecap="butt" stroke-linejoin="round" stroke-width="1"/>
</svg>