<svg stroke-miterlimit="10" viewBox="0 0 512 512" xmlns="http://www.w3.org/2000/svg" xmlns:vectornator="http://vectornator.io" clip-rule="evenodd" stroke-linecap="round" stroke-linejoin="round"><g vectornator:layerName="Layer"><path d="M0 512V0h320L192 512H0z" fill="#ec0014" vectornator:layerName="曲线 1"/><path d="M512 0v512H192L320 0h192z" fill="#0083ff" vectornator:layerName="曲线 2"/><path d="M294 0l-21 87-1 2-1 3-5 21-5 21-1 3-1 3-59 236v3l-1 3-4 17-5 18v2l-1 3-23 90h52l21-87 1-2 1-3 5-21 5-21 1-3 1-3 59-236v-3l1-3 5-17 4-18v-2l1-3 23-90h-52z" fill="#fff"/><path d="M416 416h64v64h-64v-64z" fill="#fff" vectornator:layerName="长方形 1"/><path d="M320 416h64v64h-64v-64z" fill="#fff" vectornator:layerName="长方形 2"/><path d="M416 320h64v64h-64v-64z" fill="#fff" vectornator:layerName="长方形 3"/><path d="M320 320h64v64h-64v-64z" fill="#fff" vectornator:layerName="长方形 4"/><path d="M32 32h64v64H32V32z" fill="#fff" vectornator:layerName="长方形 5"/><path d="M128 32h64v64h-64V32z" fill="#fff" vectornator:layerName="长方形 6"/><path d="M32 128h64v64H32v-64z" fill="#fff" vectornator:layerName="长方形 7"/><path d="M128 128h64v64h-64v-64z" fill="#fff" vectornator:layerName="长方形 8"/><path d="M441 129h-65V97h65v32z" fill="#98ccfd" vectornator:layerName="path"/><path d="M379 126V99h60v27h-60m-5 5h70V94h-70v37z" fill="#4788c7" vectornator:layerName="path"/><path d="M380 113l-7 16-150 11-27-27 27-27 150 10 7 17z" fill="#dff0fe" vectornator:layerName="path"/><path d="M199 113l25-25 147 11 6 14-6 13-147 11-25-24m-7 0l30 29 153-11 8-18-8-19-153-11-30 30z" fill="#4788c7" vectornator:layerName="path"/><path d="M371 99L224 88l-25 25h178l-6-14z" fill="#b6dcfe" vectornator:layerName="path"/><g vectornator:layerName="g" fill="#4788c7"><path d="M443 85c2 1 3 3 3 5v45c0 2-1 4-3 5a8 8 0 01-11 0l-2-5V90l2-5a8 8 0 0111 0z" vectornator:layerName="path"/><path d="M434 138l-1-3V90l1-3a5 5 0 018 0l1 3v45l-1 3a5 5 0 01-8 0m-4 4a10 10 0 0018-7V90a10 10 0 00-10-10c-6 0-11 5-11 10v45c0 3 1 5 3 7z" vectornator:layerName="path"/></g><g vectornator:layerName="g" fill="#4788c7"><path d="M384 70l2 6v73a8 8 0 01-16 0V76a8 8 0 0114-6z" vectornator:layerName="path"/><path d="M375 153l-2-4V76l2-4a5 5 0 017 0l2 4v73l-2 4a5 5 0 01-7 0m-4 4a10 10 0 0018-8V76a11 11 0 00-11-11c-6 0-10 5-10 11v73c0 3 1 6 3 8z" vectornator:layerName="path"/></g><path d="M71 383h65v32H71v-32z" fill="#fd9898" vectornator:layerName="path"/><path d="M133 386v27H74v-27h59m6-5H69v37h70v-37z" fill="#c74747" vectornator:layerName="path"/><path d="M133 399l7-16 150-11 27 27-27 27-150-10-7-17z" fill="#fedfdf" vectornator:layerName="path"/><path d="M313 399l-24 25-148-11-6-14 6-13 148-11 24 24m7 0l-29-29-153 11-8 18 8 19 153 11 29-30z" fill="#c74747" vectornator:layerName="path"/><path d="M141 413l148 11 24-25H135l6 14z" fill="#feb6b6" vectornator:layerName="path"/><g vectornator:layerName="g" fill="#c74747"><path d="M69 427c-2-1-2-3-2-5v-45c0-2 0-4 2-5a8 8 0 0111 0c2 1 2 3 2 5v45c0 2 0 4-2 5a8 8 0 01-11 0z" vectornator:layerName="path"/><path d="M78 374l2 3v45l-2 3a5 5 0 01-7 0l-2-3v-45l2-3a5 5 0 017 0m4-4a10 10 0 00-18 7v45a10 10 0 0011 10c5 0 10-5 10-10v-45c0-3-1-5-3-7z" vectornator:layerName="path"/></g><g vectornator:layerName="g" fill="#c74747"><path d="M129 442l-3-6v-73a8 8 0 0116 0v73a8 8 0 01-13 6z" vectornator:layerName="path"/><path d="M138 359l1 4v73l-1 4a5 5 0 01-8 0l-1-4v-73l1-4a5 5 0 018 0m4-4a10 10 0 00-18 8v73a11 11 0 0010 11c6 0 11-5 11-11v-73c0-3-2-6-3-8z" vectornator:layerName="path"/></g></g></svg>