<svg stroke-miterlimit="10"  viewBox="0 0 128 128" xmlns="http://www.w3.org/2000/svg" ><path d="M0 0L128 0L128 128L0 128L0 0Z" fill="#ffffff" /><clipPath id="ArtboardFrame"><rect height="128" width="128" x="0" y="0"/></clipPath><path d="M48-1e-14C41-3e-06 35 3 31 7C26 12 24 18 24 24C24 31 26 37 31 41C35 46 41 48 48 48C54 48 60 46 65 41C69 37 72 31 72 24C72 18 69 12 65 7C60 3 54-1e-14 48-1e-14Z" fill="#fd8d33" /><path d="M100 47C88 47 79 56 79 68L79 112L122 112L122 68C122 56 112 47 100 47Z" fill="#70bf4f" /><path d="M6 11C6 76 58 128 122 128L122 112C67 112 22 67 22 11L6 11Z" fill="#535557" /></svg>