<svg stroke-miterlimit="10" viewBox="22.4 0 467.2 512" xmlns="http://www.w3.org/2000/svg" clip-rule="evenodd" stroke-linecap="round" stroke-linejoin="round"><clipPath id="a"><path d="M22 0h468v512H22z"/></clipPath><g clip-path="url(#a)" vectornator:layerName="Layer"><path d="M191 0a97 97 0 00-97 97 97 97 0 0097 97 97 97 0 0097-97 97 97 0 00-97-97z" fill="#fd8d33" vectornator:layerName="曲线 4"/><path d="M402 187c-48 0-87 39-87 87v173h173V274c0-48-38-87-86-87z" fill="#70bf4f" vectornator:layerName="曲线 2"/><path d="M22 45c0 258 210 467 468 467v-66A401 401 0 0188 45H22z" fill="#535557" vectornator:layerName="曲线 3"/></g></svg>