<svg height="30" stroke-miterlimit="10" width="30" viewBox="0 0 30 30" xmlns="http://www.w3.org/2000/svg" clip-rule="evenodd" stroke-linecap="round" stroke-linejoin="round"><path d="M15 .833C7.176.833.833 7.176.833 15S7.176 29.167 15 29.167 29.167 22.824 29.167 15 22.824.833 15 .833z" fill="#f6d397"/><path d="M15 5C9.477 5 5 9.477 5 15s4.477 10 10 10 10-4.477 10-10S20.523 5 15 5z" fill="#f9e3ae"/><path d="M19.938 6.313a9.73 9.73 0 00-.569-.3L6.012 19.353c.096.193.193.385.3.572.363.65.8 1.252 1.299 1.803L21.735 7.611a9.728 9.728 0 00-1.797-1.298zm-3.6-1.22A9.453 9.453 0 0015 5c-.197 0-.388.018-.582.03L6.73 12.691l-1.7 1.7C5.018 14.594 5 14.795 5 15c.005.822.114 1.638.312 2.434l12.13-12.13a9.936 9.936 0 00-1.105-.21zm8.202 6.905a9.905 9.905 0 00-1.197-2.507c-.053-.079-.108-.155-.162-.232-.064-.089-.131-.175-.197-.262l-.752.75-13.23 13.241A9.941 9.941 0 0015 25l10-10c0-1.026-.156-2.015-.442-2.947l-.018-.056z" fill="#ffefca"/><path d="M14.167 8.333v.834a3.334 3.334 0 000 6.666h1.666a1.666 1.666 0 110 3.334V17.5a.834.834 0 00-1.666 0v1.667c-.921 0-1.667-.746-1.667-1.667a.834.834 0 00-1.667 0 3.333 3.333 0 003.334 3.333v.834a.834.834 0 001.666 0v-.834a3.333 3.333 0 000-6.666V12.5a.834.834 0 00-1.666 0v1.667a1.666 1.666 0 110-3.334h1.666c.921 0 1.667.746 1.667 1.667a.834.834 0 001.667 0 3.334 3.334 0 00-3.334-3.333v-.834a.834.834 0 00-1.666 0z" fill="#8d6c9f"/><path d="M15 30C6.73 30 0 23.27 0 15S6.73 0 15 0s15 6.73 15 15-6.73 15-15 15zm0-28.333C7.648 1.667 1.667 7.648 1.667 15S7.648 28.333 15 28.333 28.333 22.352 28.333 15 22.352 1.667 15 1.667z" fill="#8d6c9f"/><path d="M20.832 7.728a.83.83 0 01-.485-.157 9.175 9.175 0 00-1.529-.895.833.833 0 11.697-1.515c.62.286 1.228.642 1.805 1.057a.834.834 0 01-.488 1.51z" fill="#8d6c9f"/><path d="M15 25.833c-5.973 0-10.833-4.86-10.833-10.833S9.027 4.167 15 4.167c.305 0 .605.02.902.045a.834.834 0 01-.138 1.66A9.254 9.254 0 0015 5.833c-5.054 0-9.167 4.113-9.167 9.167 0 5.054 4.113 9.167 9.167 9.167 5.054 0 9.167-4.113 9.167-9.167a9.1 9.1 0 00-1.527-5.055.833.833 0 111.387-.924A10.753 10.753 0 0125.833 15c0 5.973-4.86 10.833-10.833 10.833z" fill="#8d6c9f"/></svg>