<svg height="41.2" viewBox="0 0 60 41.2" stroke-miterlimit="10" width="60" xmlns="http://www.w3.org/2000/svg" clip-rule="evenodd" stroke-linecap="round" stroke-linejoin="round"><path d="M16.454-.003c-5.337 0-9.442 1.79-12.27 5.32C1.356 8.844 0 13.95 0 20.635c0 6.578 1.383 11.604 4.184 15.177 2.802 3.572 6.773 5.39 11.915 5.39 2.075 0 3.998-.328 5.816-.993 1.817-.665 3.457-1.684 4.964-2.979V19.075H14.681v6.596h5.39v7.589c-.372.301-.887.487-1.49.638a8.648 8.648 0 01-2.127.284c-2.713 0-4.752-1.17-6.17-3.476-1.419-2.305-2.128-5.656-2.128-10.07 0-4.557.727-7.97 2.199-10.213 1.471-2.243 3.688-3.405 6.666-3.405 1.702 0 3.254.417 4.681 1.135s2.73 1.773 3.83 3.192V2.62c-1.348-.85-2.855-1.462-4.397-1.915-1.543-.452-3.085-.709-4.681-.709zm29.574 0c-4.592 0-8.076 1.773-10.425 5.248-2.35 3.476-3.475 8.6-3.475 15.39 0 6.773 1.126 11.844 3.475 15.32 2.35 3.475 5.833 5.248 10.425 5.248 4.61 0 8.077-1.773 10.426-5.248C58.804 32.479 60 27.409 60 20.635c0-6.79-1.197-11.914-3.546-15.39-2.35-3.475-5.816-5.248-10.426-5.248zm-2.34 10.142s1.773.168 1.773 2.199c0 .388-.053.768-.213 1.134-.573 1.317-2.27 3.972-2.27 3.972h13.83c.752 0 1.348.596 1.348 1.348 0 .751-.596 1.347-1.347 1.347h-7.731l-.71 9.22c-.078.941-.9 1.702-1.843 1.702h-7.376c-2.005 0-3.688-1.612-3.688-3.617v-6.596c0-1.616.745-3.15 1.986-4.184l3.475-2.837 2.766-3.688z"/></svg>