<svg height="30.0px" stroke-miterlimit="10" style="fill-rule:nonzero;clip-rule:evenodd;stroke-linecap:round;stroke-linejoin:round;" version="1.1" viewBox="0 0 21.19 30" width="21.19px" xml:space="preserve" xmlns="http://www.w3.org/2000/svg" xmlns:xlink="http://www.w3.org/1999/xlink">
<defs/>
<path d="M10.5938 0C7.66989 0 5.3125 2.35739 5.3125 5.28125C5.3125 7.13635 6.37095 8.64316 7.8125 9.59375L5.3125 9.59375C3.97917 9.59375 3.97917 11.5937 5.3125 11.5938C5.68058 11.5938 7.14582 11.5937 8.25 11.5938C7.45361 17.3952 6.15271 20.8363 5.6875 21.9375L5.3125 21.9375C4.37089 21.9375 4.14292 22.9139 4.53125 23.5C2.49275 24.1726 0 25.7456 0 30L21.1875 30C21.1875 25.7456 18.6947 24.1726 16.6562 23.5C17.0446 22.9139 16.8166 21.9375 15.875 21.9375L15.5 21.9375C15.0348 20.8363 13.7339 17.3952 12.9375 11.5938C14.0417 11.5938 15.5069 11.5937 15.875 11.5938C17.2083 11.5938 17.2083 9.59375 15.875 9.59375L13.375 9.59375C14.8165 8.64316 15.875 7.13635 15.875 5.28125C15.875 2.35739 13.5176 0 10.5938 0Z" fill="#3ac401" fill-rule="nonzero" opacity="1" stroke="none"/>
</svg>
