<svg height="30" stroke-miterlimit="10" width="30" xmlns="http://www.w3.org/2000/svg" clip-rule="evenodd" stroke-linecap="round" stroke-linejoin="round" style="fill:theColor;" viewBox="0 0 30 30"><path d="M27.604 28.75H2.396V3.542A2.293 2.293 0 014.688 1.25h20.625a2.293 2.293 0 012.291 2.292V28.75z" fill="none" stroke="#000" stroke-linecap="butt" stroke-linejoin="miter" stroke-width="2.5"/><path d="M12.708 23.02h4.584v5.73h-4.584v-5.73z" stroke="#000" stroke-linecap="butt" stroke-linejoin="miter" stroke-width="2.5"/><path d="M10.417 24.167H5.833m11.459-4.584h-4.584m-2.291 0H5.833M24.167 15h-4.584m4.584 4.583h-4.584m4.584 4.584h-4.584M17.292 15h-4.584m-2.291 0H5.833m18.334-4.583h-4.584m-2.291 0h-4.584m-2.291 0H5.833m18.334-4.584h-4.584m-2.291 0h-4.584m-2.291 0H5.833" fill="none" stroke="theColor" stroke-linecap="butt" stroke-linejoin="miter" stroke-width="2.5"/></svg>