<svg height="30" viewBox="0 0 30 30" stroke-miterlimit="10" width="30" xmlns="http://www.w3.org/2000/svg" clip-rule="evenodd" stroke-linecap="round" stroke-linejoin="round"><path d="M15.79 18.947l-1.58-1.579V30h1.58V18.947zm4.736 4.737l-1.579-1.579V30h1.58v-6.316z" fill="#ef6c00"/><path d="M0 15h1.579v15H0V15zm9.474 0h1.579v15h-1.58V15z" fill="#009688"/><path d="M2.368 18.158h7.106v1.579H2.368v-1.58zm0 3.158h7.106v1.579H2.368v-1.58zm0 3.158h7.106v1.579H2.368v-1.58zm0 3.158h7.106v1.578H2.368v-1.578z" fill="#00796b"/><path d="M1.579 18.158h.79v1.579h-.79v-1.58zm0 3.158h.79v1.579h-.79v-1.58zm0 3.158h.79v1.579h-.79v-1.58zm0 3.158h.79v1.578h-.79v-1.578z" fill="#004d40"/><path d="M11.053 5.526H0L5.526 0l5.527 5.526z" fill="#f44336"/><path d="M0 5.526V16.58h11.053V5.526H0z" fill="#2196f3"/><path d="M5.526 7.895a3.167 3.167 0 00-3.158 3.158 3.167 3.167 0 003.158 3.157 3.167 3.167 0 003.158-3.157 3.167 3.167 0 00-3.158-3.158z" fill="#0d47a1"/><path d="M30 30h-4.737L12.632 16.579h-1.58v-5.526h.632c.632 0 1.184.315 1.421.868L15 15.79l10.263 11.052h3.158c.869 0 1.579.71 1.579 1.58V30z" fill="#ff9800"/></svg>