<svg height="30" viewBox="0 0 30 30" stroke-miterlimit="10" width="30" xmlns="http://www.w3.org/2000/svg" clip-rule="evenodd" stroke-linecap="round" stroke-linejoin="round"><path d="M0 15h30v14.286H0V15z" fill="#e89419"/><path d="M20 1.429v2.857h-1.571c-1.715 0-.858-.715-3.429-.715V.714c2.571 0 1.714.715 3.429.715H20z" fill="#c62828"/><path d="M2.143 17.857h2.143v3.572H2.143v-3.572zm3.571 0h2.143v3.572H5.714v-3.572zm0 5.714h2.143v3.572H5.714V23.57zm-3.571 0h2.143v3.572H2.143V23.57zm20-5.714h2.143v3.572h-2.143v-3.572zm3.571 0h2.143v3.572h-2.143v-3.572zm0 5.714h2.143v3.572h-2.143V23.57zm-3.571 0h2.143v3.572h-2.143V23.57z" fill="#805a26"/><path d="M0 11.429h30v4.285H0V11.43z" fill="#00796b"/><path d="M15 6.071l-5 5v18.215h10V11.07l-5-5z" fill="#ffb74d"/><path d="M15 12.857A3.571 3.571 0 1015 20a3.571 3.571 0 000-7.143z" fill="#fafafa"/><path d="M16.429 17.143H15c-.429 0-.714-.286-.714-.714V15c0-.429.285-.714.714-.714s.714.285.714.714v.714h.715c.428 0 .714.286.714.715 0 .428-.286.714-.714.714z" fill="#795548"/><path d="M15 5l-6.429 6.429V13.5L15 7.071l6.429 6.429v-2.071L15 5z" fill="#4db6ac"/><path d="M15 22.143c-1.214 0-2.143.928-2.143 2.143v5h4.286v-5c0-1.215-.929-2.143-2.143-2.143z" fill="#805a26"/></svg>