<svg height="30" viewBox="0 0 30 30" stroke-miterlimit="10" width="30" xmlns="http://www.w3.org/2000/svg" clip-rule="evenodd" stroke-linecap="round" stroke-linejoin="round"><path d="M27.857 2.143c0-.429-.286-.714-.714-.714H2.857c-.428 0-.714.285-.714.714V28.57h25.714V2.143z" fill="#85d4ff"/><path d="M2.143 27.143h25.714v1.428H2.143v-1.428zm24.286-15h1.428v15H26.43v-15zm-24.286 0H3.57v15H2.143v-15z" fill="#cfd8dc"/><path d="M7.5 2.857A1.071 1.071 0 107.5 5a1.071 1.071 0 000-2.143zm2.857 0a1.071 1.071 0 100 2.143 1.071 1.071 0 000-2.143zm-5.714 0a1.071 1.071 0 100 2.143 1.071 1.071 0 000-2.143z" fill="#90a4ae"/><path d="M15.714 15.714H25v7.857h-9.286v-7.857z" fill="#e3f2fd"/><path d="M16.429 16.429h7.857v6.428h-7.857V16.43z" fill="#1e88e5"/><path d="M15 10a2.143 2.143 0 100 4.286A2.143 2.143 0 0015 10zm-8.571 0a2.143 2.143 0 100 4.286 2.143 2.143 0 000-4.286zm17.142 0a2.143 2.143 0 100 4.286 2.143 2.143 0 000-4.286z" fill="#558b2f"/><path d="M12.857 6.429h4.286v5.714h-4.286V6.429zm-8.571 5.714H8.57l.715-5.714H5.714l-1.428 5.714zm21.428 0H21.43l-.715-5.714h3.572l1.428 5.714z" fill="#7cb342"/><path d="M10.714 10a2.143 2.143 0 100 4.286 2.143 2.143 0 000-4.286zm-8.571 0c1.214 0 2.143.929 2.143 2.143 0 1.214-.929 2.143-2.143 2.143C.929 14.286 0 13.357 0 12.143L2.143 10zm17.143 0a2.143 2.143 0 100 4.286 2.143 2.143 0 000-4.286zm8.571 0c-1.214 0-2.143.929-2.143 2.143 0 1.214.929 2.143 2.143 2.143 1.214 0 2.143-.929 2.143-2.143L27.857 10z" fill="#ffa000"/><path d="M8.571 12.143h4.286V6.429H9.286l-.715 5.714zm-8.571 0h4.286l1.428-5.714H2.143L0 12.143zm21.429 0h-4.286V6.429h3.571l.715 5.714zm8.571 0h-4.286l-1.428-5.714h3.571L30 12.143z" fill="#ffc107"/><path d="M5 15.714h7.857v11.429H5V15.714z" fill="#455a64"/><path d="M6.429 22.143v1.428c0 .215.142.358.357.358.214 0 .357-.143.357-.358v-1.428c0-.214-.143-.357-.357-.357-.215 0-.357.143-.357.357z" fill="#90a4ae"/></svg>