<svg height="30" viewBox="0 0 21.43 30" stroke-miterlimit="10" width="21.43" xmlns="http://www.w3.org/2000/svg" clip-rule="evenodd" stroke-linecap="round" stroke-linejoin="round"><path d="M1.43 29.286a.699.699 0 01-.607-.336.738.738 0 01-.029-.73l4.921-9.658V7.142h10v11.42l4.924 9.662a.738.738 0 01-.032.726.699.699 0 01-.606.336H1.429z" fill="#a0f"/><path d="M15 7.857v10.877l.156.305 4.84 9.5c.006.011.013.026.005.032l-18.568.006c-.012-.012-.005-.028-.004-.03l4.845-9.508.155-.305V7.857h8.572m1.428-1.428H5.001V18.39L.156 27.9c-.482.965.195 2.1 1.273 2.1h18.572c1.078 0 1.755-1.135 1.273-2.1l-4.845-9.51V6.43z" fill="#d58dff"/><path d="M11.43 14.27H10a1.433 1.433 0 01-1.428-1.428V7.857H5.001V1.43C5 .643 5.644 0 6.429 0h8.572c.785 0 1.428.643 1.428 1.429v6.428h-3.571v4.985c0 .786-.643 1.429-1.429 1.429z" fill="#90caf9"/><path d="M10.715 2.143a2.143 2.143 0 100 4.286 2.143 2.143 0 000-4.286z" fill="#fff"/><path d="M10.715 3.571a.714.714 0 100 1.429.714.714 0 000-1.429z" fill="#37474f"/><path d="M12.858 19.286a1.429 1.429 0 100 2.857 1.429 1.429 0 000-2.857zm-3.214 3.571a1.071 1.071 0 100 2.143 1.071 1.071 0 000-2.143zM7.858 26.43a.714.714 0 100 1.428.714.714 0 000-1.428zm5.714-.715a.714.714 0 100 1.429.714.714 0 000-1.429zM7.858 20a.714.714 0 100 1.429.714.714 0 000-1.429z" fill="#d58dff"/></svg>