<svg height="30.0px" stroke-miterlimit="10" style="fill-rule:nonzero;clip-rule:evenodd;stroke-linecap:round;stroke-linejoin:round;" version="1.1" viewBox="0 0 30 30" width="30.0px" xml:space="preserve" xmlns="http://www.w3.org/2000/svg" xmlns:xlink="http://www.w3.org/1999/xlink">
<defs/>
<path d="M15 0C12.0761 0 9.71875 2.35739 9.71875 5.28125C9.71875 7.13635 10.7772 8.64316 12.2188 9.59375L9.71875 9.59375C8.38542 9.59375 8.38542 11.5937 9.71875 11.5938C10.0868 11.5938 11.5521 11.5937 12.6562 11.5938C11.8599 17.3952 10.559 20.8363 10.0938 21.9375L9.71875 21.9375C8.77714 21.9375 8.54917 22.9139 8.9375 23.5C6.899 24.1726 4.40625 25.7456 4.40625 30L25.5938 30C25.5938 25.7456 23.101 24.1726 21.0625 23.5C21.4508 22.9139 21.2229 21.9375 20.2812 21.9375L19.9062 21.9375C19.441 20.8363 18.1401 17.3952 17.3438 11.5938C18.4479 11.5938 19.9132 11.5937 20.2812 11.5938C21.6146 11.5938 21.6146 9.59375 20.2812 9.59375L17.7812 9.59375C19.2228 8.64316 20.2812 7.13635 20.2812 5.28125C20.2812 2.35739 17.9239 0 15 0Z" fill="#ffc700" fill-rule="nonzero" opacity="1" stroke="none"/>
</svg>
