<svg height="30.0px" stroke-miterlimit="10" style="fill-rule:nonzero;clip-rule:evenodd;stroke-linecap:round;stroke-linejoin:round;" version="1.1" viewBox="0 0 30 30" width="30.0px" xml:space="preserve" xmlns="http://www.w3.org/2000/svg" xmlns:xlink="http://www.w3.org/1999/xlink">
<defs/>
<path d="M5.71429 29.2857C5.46143 29.2857 5.24 29.1636 5.10786 28.95C4.97 28.7264 4.95929 28.4593 5.07929 28.2193L10 18.5621L10 7.14286L20 7.14286L20 18.5621L24.9236 28.2236C25.0407 28.4593 25.03 28.7257 24.8921 28.95C24.76 29.1636 24.5386 29.2857 24.2857 29.2857L5.71429 29.2857Z" fill="#aa00ff" fill-rule="nonzero" opacity="1" stroke="none"/>
<path d="M19.2857 7.85714L19.2857 18.3907L19.2857 18.7336L19.4414 19.0393L24.2814 28.5386C24.2871 28.55 24.2943 28.565 24.2857 28.5714L5.71786 28.5771C5.70571 28.565 5.71286 28.5493 5.71357 28.5479L10.5586 19.0386L10.7143 18.7336L10.7143 18.3907L10.7143 7.85714L19.2857 7.85714M20.7143 6.42857L9.28571 6.42857L9.28571 18.3907L4.44071 27.9C3.95857 28.865 4.63571 30 5.71429 30L24.2857 30C25.3643 30 26.0414 28.865 25.5593 27.9L20.7143 18.3907L20.7143 6.42857L20.7143 6.42857Z" fill="#d58dff" fill-rule="nonzero" opacity="1" stroke="none"/>
<path d="M15.7143 14.2707L14.2857 14.2707C13.5 14.2707 12.8571 13.6279 12.8571 12.8421L12.8571 7.85714L9.28571 7.85714L9.28571 1.42857C9.28571 0.642857 9.92857 0 10.7143 0L19.2857 0C20.0714 0 20.7143 0.642857 20.7143 1.42857L20.7143 7.85714L17.1429 7.85714L17.1429 12.8421C17.1429 13.6279 16.5 14.2707 15.7143 14.2707Z" fill="#90caf9" fill-rule="nonzero" opacity="1" stroke="none"/>
<path d="M15 2.14286C13.8165 2.14286 12.8571 3.10225 12.8571 4.28571C12.8571 5.46918 13.8165 6.42857 15 6.42857C16.1835 6.42857 17.1429 5.46918 17.1429 4.28571C17.1429 3.10225 16.1835 2.14286 15 2.14286Z" fill="#ffffff" fill-rule="nonzero" opacity="1" stroke="none"/>
<path d="M15 3.57143C14.6055 3.57143 14.2857 3.89123 14.2857 4.28571C14.2857 4.6802 14.6055 5 15 5C15.3945 5 15.7143 4.6802 15.7143 4.28571C15.7143 3.89123 15.3945 3.57143 15 3.57143Z" fill="#37474f" fill-rule="nonzero" opacity="1" stroke="none"/>
<path d="M17.1429 19.2857C16.3539 19.2857 15.7143 19.9253 15.7143 20.7143C15.7143 21.5033 16.3539 22.1429 17.1429 22.1429C17.9318 22.1429 18.5714 21.5033 18.5714 20.7143C18.5714 19.9253 17.9318 19.2857 17.1429 19.2857ZM13.9286 22.8571C13.3368 22.8571 12.8571 23.3368 12.8571 23.9286C12.8571 24.5203 13.3368 25 13.9286 25C14.5203 25 15 24.5203 15 23.9286C15 23.3368 14.5203 22.8571 13.9286 22.8571ZM12.1429 26.4286C11.7484 26.4286 11.4286 26.7484 11.4286 27.1429C11.4286 27.5373 11.7484 27.8571 12.1429 27.8571C12.5373 27.8571 12.8571 27.5373 12.8571 27.1429C12.8571 26.7484 12.5373 26.4286 12.1429 26.4286ZM17.8571 25.7143C17.4627 25.7143 17.1429 26.0341 17.1429 26.4286C17.1429 26.8231 17.4627 27.1429 17.8571 27.1429C18.2516 27.1429 18.5714 26.8231 18.5714 26.4286C18.5714 26.0341 18.2516 25.7143 17.8571 25.7143ZM12.1429 20C11.7484 20 11.4286 20.3198 11.4286 20.7143C11.4286 21.1088 11.7484 21.4286 12.1429 21.4286C12.5373 21.4286 12.8571 21.1088 12.8571 20.7143C12.8571 20.3198 12.5373 20 12.1429 20Z" fill="#d58dff" fill-rule="nonzero" opacity="1" stroke="none"/>
</svg>
