<svg height="30.0px" stroke-miterlimit="10" style="fill-rule:nonzero;clip-rule:evenodd;stroke-linecap:round;stroke-linejoin:round;" version="1.1" viewBox="0 0 30 30" width="30.0px" xml:space="preserve" xmlns="http://www.w3.org/2000/svg" xmlns:xlink="http://www.w3.org/1999/xlink">
<defs/>
<g id="图层-1">
<g opacity="1">
<path d="M15 3.55271e-15C12.0761 3.55271e-15 9.70588 2.37026 9.70588 5.29412C9.70588 8.21798 12.0761 10.5882 15 10.5882C17.9239 10.5882 20.2941 8.21798 20.2941 5.29412C20.2941 2.37026 17.9239 3.55271e-15 15 3.55271e-15Z" fill="#000000" fill-rule="nonzero" opacity="1" stroke="none"/>
<path d="M9.70588 22.9412L20.2941 22.9412L9.70588 22.9412ZM9.70588 10.5882L20.2941 10.5882L9.70588 10.5882Z" fill="none" opacity="1" stroke="#000000" stroke-linecap="round" stroke-linejoin="round" stroke-width="2"/>
<path d="M18.5294 22.9412L11.4706 22.9412C11.4706 22.9412 4.41176 22.9412 4.41176 30L25.5882 30C25.5882 22.9412 18.5294 22.9412 18.5294 22.9412ZM16.7647 5.29412L13.2353 5.29412C13.2353 15.8824 9.70588 22.9412 9.70588 22.9412L20.2941 22.9412C20.2941 22.9412 16.7647 15.8824 16.7647 5.29412Z" fill="#000000" fill-rule="nonzero" opacity="1" stroke="none"/>
</g>
</g>
</svg>
