<svg height="30.0px" stroke-miterlimit="10" style="fill-rule:nonzero;clip-rule:evenodd;stroke-linecap:round;stroke-linejoin:round;" version="1.1" viewBox="0 0 30 30" width="30.0px" xml:space="preserve" xmlns="http://www.w3.org/2000/svg" xmlns:xlink="http://www.w3.org/1999/xlink">
<defs/>
<g id="图层-1">
<path d="M9.53125 4.125C6.553 4.125 4.125 6.553 4.125 9.53125L4.125 17.625L14.625 17.625L14.625 9.21875C14.625 6.398 12.352 4.125 9.53125 4.125Z" fill="#6a8ed3" fill-rule="nonzero" opacity="1" stroke="none"/>
<path d="M14.6251 17.625L7.1251 17.625C6.71072 17.625 6.3751 17.2894 6.3751 16.875L6.3751 9.375C6.3751 8.96062 6.71072 8.625 7.1251 8.625L14.6251 8.625" fill="#e1cba9" fill-rule="nonzero" opacity="1" stroke="none"/>
<path d="M14.6251 12.225L12.8138 13.5375C12.551 13.7284 12.1955 13.7284 11.9326 13.5375L6.3751 9.51L6.7501 8.685L14.6251 8.625L14.6251 12.225Z" fill="#f3e4d6" fill-rule="nonzero" opacity="1" stroke="none"/>
<path d="M6.68635 8.685L14.6251 8.685C15.0376 8.685 14.6251 9.0225 14.6251 9.435L15.0001 9.435C15.0001 9.8475 15.0376 10.185 14.6251 10.185L6.68635 10.185C6.27385 10.185 6.27385 8.685 6.68635 8.685Z" fill="#ffffff" fill-rule="nonzero" opacity="1" stroke="none"/>
<path d="M6.7501 17.625L14.6251 17.625L14.6251 15.75L7.8751 15.75C7.04672 15.75 6.3751 16.4216 6.3751 17.25L6.3751 17.3362C6.3751 17.5425 6.54385 17.625 6.7501 17.625Z" fill="#dfbd97" fill-rule="nonzero" opacity="1" stroke="none"/>
<path d="M9.53125 4.125C12.352 4.125 14.625 6.398 14.625 9.21875L14.625 17.625L25.875 17.625L25.875 9.375C25.875 6.4755 23.5245 4.125 20.625 4.125L9.53125 4.125Z" fill="#819fdf" fill-rule="nonzero" opacity="1" stroke="none"/>
<path d="M13.8751 19.875L16.8751 19.875L16.8751 30L13.8751 30L13.8751 19.875Z" fill="#d25f74" fill-rule="nonzero" opacity="1" stroke="none"/>
<path d="M16.1251 15.75L24.3751 15.75C25.2035 15.75 25.8751 16.4216 25.8751 17.25L25.8751 17.625L25.8751 17.625L14.6251 17.625L14.6251 17.625L14.6251 17.25C14.6251 16.4216 15.2967 15.75 16.1251 15.75Z" fill="#668cd4" fill-rule="nonzero" opacity="1" stroke="none"/>
<path d="M25.8751 17.625L4.1251 17.625C3.71072 17.625 3.3751 17.9606 3.3751 18.375L3.3751 18.375C3.3751 18.7894 3.71072 19.125 4.1251 19.125L25.8751 19.125C26.2895 19.125 26.6251 18.7894 26.6251 18.375L26.6251 18.375C26.6251 17.9606 26.2895 17.625 25.8751 17.625Z" fill="#e4bf58" fill-rule="nonzero" opacity="1" stroke="none"/>
<path d="M20.6251 0.75C20.6251 0.543 20.4571 0.375 20.2501 0.375L17.2501 0.375C17.0431 0.375 16.8751 0.543 16.8751 0.75L16.8751 10.125C16.8751 10.5394 17.2107 10.875 17.6251 10.875L17.6251 10.875C18.0395 10.875 18.3751 10.5394 18.3751 10.125L18.3751 2.625C18.3713 2.44387 18.4977 2.286 18.6751 2.25L20.3213 1.92C20.4987 1.884 20.6251 1.72613 20.6213 1.545L20.6251 0.75Z" fill="#d4456d" fill-rule="nonzero" opacity="1" stroke="none"/>
<path d="M16.8292 9.33139C16.3899 9.77074 16.3899 10.4831 16.8292 10.9224C17.2686 11.3617 17.9809 11.3617 18.4202 10.9224C18.8596 10.483 18.8596 9.7707 18.4202 9.33137C17.9809 8.89203 17.2685 8.89205 16.8292 9.33139Z" fill="#ddb957" fill-rule="nonzero" opacity="1" stroke="none"/>
<path d="M17.9101 20.625L12.8401 20.625C12.5555 20.625 12.2956 20.4638 12.1688 20.2087L11.6251 19.125L19.1251 19.125L18.5813 20.2087C18.4546 20.4638 18.1947 20.625 17.9101 20.625Z" fill="#d05b6a" fill-rule="nonzero" opacity="1" stroke="none"/>
<path d="M20.2501 10.5L21.7501 10.5C21.9571 10.5 22.1251 10.332 22.1251 10.125C22.1251 9.918 21.9571 9.75 21.7501 9.75L20.2501 9.75C20.0431 9.75 19.8751 9.918 19.8751 10.125C19.8751 10.332 20.0431 10.5 20.2501 10.5ZM21.7501 15.375L21.7501 16.125C21.7501 16.332 21.9181 16.5 22.1251 16.5C22.3321 16.5 22.5001 16.332 22.5001 16.125L22.5001 15.375C22.5001 15.168 22.3321 15 22.1251 15C21.9181 15 21.7501 15.168 21.7501 15.375ZM20.2501 16.5C20.4571 16.5 20.6251 16.332 20.6251 16.125L20.6251 15.375C20.6251 15.168 20.4571 15 20.2501 15C20.0431 15 19.8751 15.168 19.8751 15.375L19.8751 16.125C19.8751 16.332 20.0431 16.5 20.2501 16.5ZM24.0001 16.5C24.2071 16.5 24.3751 16.332 24.3751 16.125L24.3751 15.375C24.3751 15.168 24.2071 15 24.0001 15C23.7931 15 23.6251 15.168 23.6251 15.375L23.6251 16.125C23.6251 16.332 23.7931 16.5 24.0001 16.5ZM18.3751 16.5C18.5821 16.5 18.7501 16.332 18.7501 16.125L18.7501 15.375C18.7501 15.168 18.5821 15 18.3751 15C18.1681 15 18.0001 15.168 18.0001 15.375L18.0001 16.125C18.0001 16.332 18.1681 16.5 18.3751 16.5ZM16.5001 16.5C16.7071 16.5 16.8751 16.332 16.8751 16.125L16.8751 15.375C16.8751 15.168 16.7071 15 16.5001 15C16.2931 15 16.1251 15.168 16.1251 15.375L16.1251 16.125C16.1251 16.332 16.2931 16.5 16.5001 16.5Z" fill="#8d6c9f" fill-rule="nonzero" opacity="1" stroke="none"/>
</g>
</svg>
