<svg xmlns="http://www.w3.org/2000/svg" xmlns:vectornator="http://vectornator.io" xml:space="preserve" stroke-miterlimit="10" style="fill-rule:nonzero;clip-rule:evenodd;stroke-linecap:round;stroke-linejoin:round" viewBox="176.906 84.594 158.188 342.813"><clipPath id="a"><path d="M176.906 84.594h158.188v342.813H176.906z"/></clipPath><g vectornator:layerName="Layer" clip-path="url(#a)"><path vectornator:layerName="曲线 14" fill="#428800" d="M256 84.594c-43.691 0-79.094 35.434-79.094 79.125 0 32.967 20.175 61.177 48.844 73.062-12.078 116.684-48.844 190.625-48.844 190.625h158.188s-36.766-73.941-48.844-190.625c28.669-11.885 48.844-40.095 48.844-73.062 0-43.691-35.403-79.125-79.094-79.125"/><path vectornator:layerName="曲线 15" fill="#d2d2d2" d="M220.969 184.437s-3.219 5.95-3.219 5.969c-.341 2.704-.985 5.339-1.531 7.906a1149 1149 0 0 1-1.188 5.532c-.585 2.685-1.2 5.374-1.781 8.062-.449 2.08-.899 4.145-1.312 6.25-.171.87-.448 1.897-.469 2.844-.014.643.326 1.573.469 2.125.403 1.569.86 3.104 1.312 4.625 1.642 5.527 3.396 10.925 5.187 16.281 1.327 3.965 2.619 8.127 4.188 11.781-1.44-4.241-2.53-9.02-3.656-13.562-1.184-4.774-2.351-9.587-3.407-14.469-.444-2.057-1.076-4.387-1.218-6.625-.045-.71.403-1.851.562-2.437.623-2.293 1.301-4.536 1.969-6.781 1.348-4.533 6.812-21.219 6.813-21.219zm13.75 0c-3.314 5.703-5.916 11.689-7.313 18.157-.243 1.128-.875 5.625-.875 5.625s1.147 5.454 2.094 8.687c1.629 5.562 3.966 10.802 6.75 15.875-1.588-5.179-2.675-10.446-2.875-15.875-.126-3.416-.855-6.128-1-9.531-.116-2.736.9-6.098.969-8.844.12-4.811.932-9.474 2.25-14.094m42.562 0c1.318 4.62 2.13 9.283 2.25 14.094.069 2.746 1.085 6.108.969 8.844-.145 3.403-.874 6.115-1 9.531-.2 5.429-1.287 10.696-2.875 15.875 2.784-5.073 5.121-10.313 6.75-15.875.947-3.233 2.094-8.687 2.094-8.687s-.632-4.497-.875-5.625c-1.397-6.468-3.999-12.454-7.313-18.157m13.75 0-2.719 6.282c.001 0 5.465 16.686 6.813 21.219.668 2.245 1.346 4.488 1.969 6.781.159.586.607 1.727.562 2.437-.142 2.238-.774 4.568-1.218 6.625-1.056 4.882-2.223 9.695-3.407 14.469-1.126 4.542-2.216 9.321-3.656 13.562 1.569-3.654 2.861-7.816 4.187-11.781 1.792-5.356 3.546-10.754 5.188-16.281.452-1.521.909-3.056 1.312-4.625.143-.552.483-1.482.469-2.125-.021-.947-.298-1.974-.469-2.844-.413-2.105-.863-4.17-1.312-6.25-.581-2.688-1.196-5.377-1.781-8.062-.402-1.845-.794-3.68-1.188-5.532-.546-2.567-1.19-5.202-1.531-7.906 0-.019-3.219-5.969-3.219-5.969m-44.812.875c-3.389 6.678-5.887 13.724-6.969 21.157-.376 2.584-.742 5.321-.531 7.937.155 1.925.872 3.708 1.531 5.5a75.4 75.4 0 0 0 4.812 10.5c-.648-3.285-1.137-6.585-1.25-9.937-.088-2.629.312-5.255.157-7.875-.18-3.031-.649-6.014-.657-9.063-.015-6.234 1.053-12.282 2.907-18.219m19.562 0c1.856 6.323 2.92 12.773 2.907 19.376-.007 3.204-.467 6.313-.657 9.5-.142 2.376.244 4.771.157 7.156-.113 3.069-.602 6.067-1.25 9.062a84 84 0 0 0 4.812-11.562c.649-1.966 1.365-3.951 1.531-6.032.25-3.112-.262-6.42-.843-9.468-1.214-6.365-3.588-12.347-6.657-18.032m-12.937 1.126c-.945 6.604-1.247 13.271-1.282 19.937-.012 2.403-.142 4.853.063 7.25.196 2.281.91 4.513 1.375 6.75.58 2.792.952 5.618 1.375 8.437.33-3.679.634-7.347.906-11.031.137-1.85.436-3.671.313-5.531-.191-2.892-.838-5.789-1.25-8.656-.818-5.691-1.425-11.403-1.5-17.156m6.312 0c-.075 6.033-.681 12.026-1.5 17.999-.409 2.988-1.05 5.99-1.25 9.001-.115 1.734.143 3.432.282 5.156.274 3.414.608 6.808.937 10.218.424-3.039.798-6.079 1.375-9.093.463-2.418 1.166-4.856 1.375-7.313.245-2.877.1-5.833.063-8.718-.075-5.776-.423-11.535-1.282-17.25"/></g></svg>