<svg xmlns="http://www.w3.org/2000/svg" xmlns:vectornator="http://vectornator.io" xml:space="preserve" stroke-miterlimit="10" style="fill-rule:nonzero;clip-rule:evenodd;stroke-linecap:round;stroke-linejoin:round" viewBox="150.537 39.563 210.927 432.875"><clipPath id="a"><path d="M150.537 39.563h210.927v432.875H150.537z"/></clipPath><g vectornator:layerName="Layer" clip-path="url(#a)"><path vectornator:layerName="曲线 1" fill="#ec0014" d="m174.094 39.563 23.218 89.906c-12.649 14.023-20.406 32.533-20.406 52.906 0 32.967 20.175 61.209 48.844 73.094-7.881 76.125-26.011 133.229-37.875 164.25h-10.969c-35.159 0-35.159 52.718 0 52.719h158.188c35.159 0 35.159-52.719 0-52.719h-10.969c-11.864-31.021-29.994-88.125-37.875-164.25 28.669-11.885 48.844-40.127 48.844-73.094 0-20.373-7.757-38.883-20.406-52.906l23.218-89.906-60.844 66.624c-6.715-1.853-13.757-2.906-21.062-2.906s-14.347 1.053-21.062 2.906z"/></g></svg>