<svg xmlns="http://www.w3.org/2000/svg" xmlns:vectornator="http://vectornator.io" xml:space="preserve" stroke-miterlimit="10" style="fill-rule:nonzero;clip-rule:evenodd;stroke-linecap:round;stroke-linejoin:round" viewBox="150.537 39.563 210.927 432.875"><clipPath id="a"><path d="M150.537 39.563h210.927v432.875H150.537z"/></clipPath><g vectornator:layerName="Layer" clip-path="url(#a)"><path vectornator:layerName="曲线 1" fill="#ec0014" d="m174.094 39.563 23.218 89.906c-12.649 14.023-20.406 32.533-20.406 52.906 0 20.301 7.711 38.744 20.282 52.75h-20.282c-35.159 0-35.159 52.719 0 52.719h44.813c-9.053 60.245-23.718 105.4-33.844 131.875h-10.969c-35.159 0-35.159 52.718 0 52.719h158.188c35.159 0 35.159-52.719 0-52.719h-10.969c-10.126-26.475-24.791-71.63-33.844-131.875h44.813c35.159 0 35.159-52.719 0-52.719h-20.282c12.571-14.006 20.282-32.449 20.282-52.75 0-20.373-7.757-38.883-20.406-52.906l23.218-89.906-60.844 66.624c-6.715-1.853-13.757-2.906-21.062-2.906s-14.347 1.053-21.062 2.906z"/></g></svg>