<svg xmlns="http://www.w3.org/2000/svg" xmlns:vectornator="http://vectornator.io" xml:space="preserve" stroke-miterlimit="10" style="fill-rule:nonzero;clip-rule:evenodd;stroke-linecap:round;stroke-linejoin:round" viewBox="150.537 84.594 210.927 342.813"><clipPath id="a"><path d="M150.537 84.594h210.927v342.813H150.537z"/></clipPath><g vectornator:layerName="Layer" clip-path="url(#a)"><path vectornator:layerName="曲线 2" fill="#ff0" d="M256 84.594c-43.691 0-79.094 35.434-79.094 79.125 0 20.285 7.698 38.717 20.25 52.719h-20.25c-35.159 0-35.159 52.75 0 52.75h44.813c-14.705 97.828-44.813 158.218-44.813 158.218h158.188s-30.108-60.39-44.813-158.218h44.813c35.159 0 35.159-52.75 0-52.75h-20.25c12.552-14.002 20.25-32.434 20.25-52.719 0-43.691-35.403-79.125-79.094-79.125"/><path vectornator:layerName="曲线 4" fill="#e3f501" d="M208.969 140.125c-5.448 13.694-6.757 28.819-5.157 43.406.963 8.768 2.982 17.492 7.032 25.375-1.456-10.153.039-20.56 2.906-30.344 2.91-9.931 7.29-19.555 14.125-27.406m56.25 0c6.835 7.851 11.215 17.475 14.125 27.406 2.867 9.784 4.362 20.191 2.906 30.344 4.05-7.883 6.069-16.606 7.032-25.375 1.6-14.587.291-29.712-5.157-43.406"/><path vectornator:layerName="曲线 3" fill="#fff" d="M205.562 129.938a52 52 0 0 0-6.937.624c-.015 13.156 14.758 25.186 34.406 27.375a53.3 53.3 0 0 0 14.281-.312c-.023-13.136-14.814-25.188-34.437-27.375a54.4 54.4 0 0 0-7.313-.312m100.876 0a54.4 54.4 0 0 0-7.313.312c-19.623 2.187-34.414 14.239-34.437 27.375a53.3 53.3 0 0 0 14.281.312c19.648-2.189 34.421-14.219 34.406-27.375a52 52 0 0 0-6.937-.624"/></g></svg>