<svg xmlns="http://www.w3.org/2000/svg" xmlns:vectornator="http://vectornator.io" xml:space="preserve" stroke-miterlimit="10" style="fill-rule:nonzero;clip-rule:evenodd;stroke-linecap:round;stroke-linejoin:round" viewBox="150.537 71.406 210.927 369.188"><clipPath id="a"><path d="M150.537 71.406h210.927v369.188H150.537z"/></clipPath><g vectornator:layerName="Layer" clip-path="url(#a)"><path vectornator:layerName="曲线 1" fill="#ff0" d="M256 71.406c-43.691 0-79.094 35.435-79.094 79.125 0 20.285 7.698 38.717 20.25 52.719h-20.25c-35.159 0-35.159 52.75 0 52.75h44.813c-9.053 60.224-23.72 105.372-33.844 131.844h-10.969c-35.159 0-35.159 52.75 0 52.75h158.188c35.159 0 35.159-52.75 0-52.75h-10.969c-10.124-26.472-24.791-71.62-33.844-131.844h44.813c35.159 0 35.159-52.75 0-52.75h-20.25c12.552-14.002 20.25-32.434 20.25-52.719 0-43.69-35.403-79.125-79.094-79.125"/><path vectornator:layerName="曲线 3" fill="#e3f501" d="M208.969 126.938c-5.448 13.694-6.757 28.819-5.157 43.406.963 8.768 2.982 17.492 7.032 25.375-1.456-10.154.039-20.56 2.906-30.344 2.91-9.932 7.29-19.555 14.125-27.406m56.25 0c6.835 7.851 11.215 17.474 14.125 27.406 2.867 9.784 4.362 20.19 2.906 30.344 4.05-7.883 6.069-16.607 7.032-25.375 1.6-14.587.291-29.712-5.157-43.406"/><path vectornator:layerName="曲线 2" fill="#fff" d="M205.562 116.75a52 52 0 0 0-6.937.625c-.015 13.155 14.758 25.216 34.406 27.406a53.2 53.2 0 0 0 14.281-.344c-.023-13.135-14.814-25.156-34.437-27.343a55 55 0 0 0-7.313-.344m100.876 0a55 55 0 0 0-7.313.344c-19.623 2.187-34.414 14.208-34.437 27.343a53.2 53.2 0 0 0 14.281.344c19.648-2.19 34.421-14.251 34.406-27.406a52 52 0 0 0-6.937-.625"/></g></svg>